<svg width="250" height="161" viewBox="0 0 250 161" fill="none" xmlns="http://www.w3.org/2000/svg">
<path d="M80.5927 36.0723C77.6489 36.8566 45.6007 64.701 38.3245 76.0741C35.5474 80.388 25.8829 92.9376 37.2692 103.638C48.6555 114.339 59.3753 108.176 59.3753 108.176C59.3753 108.176 60.5417 111.37 74.2608 111.034C91.3125 110.585 92.0346 110.305 93.923 108.905C93.923 108.905 100.033 106.384 99.755 103.022C99.4773 99.6606 97.089 99.2684 91.257 98.2599C85.4249 97.2515 80.4261 97.1955 80.4261 97.1955L81.3703 95.5707C81.3703 95.5707 90.7571 94.5623 94.9783 90.3044C94.9783 90.3044 102.366 101.173 104.643 103.134C106.92 105.095 112.252 108.456 116.585 106.271C116.585 106.271 119.251 107.504 121.528 105.935C121.528 105.935 123.583 104.759 123.083 103.582C123.083 103.582 124.916 103.526 126.971 102.966C131.859 101.565 130.137 99.2124 129.248 97.4756C127.138 93.2737 121.861 94.0581 120.028 91.8171C118.584 90.0803 117.307 73.777 116.085 68.1745C114.863 62.5721 122.139 55.625 119.806 47.2773C117.473 38.9295 80.5927 36.0723 80.5927 36.0723Z" fill="black"/>
<path d="M120.027 91.8737C118.972 90.6411 118.083 82.2374 117.194 75.4023C115.75 75.7385 116.25 79.9964 115.917 80.6127C115.806 80.8368 115.361 78.7638 115.084 78.9319C114.528 79.4361 115.028 82.5175 114.695 83.2458C114.25 84.1983 113.584 82.0693 113.584 82.0693C112.584 82.7416 113.584 85.5429 113.362 86.1591C113.251 86.4953 112.14 84.9826 112.14 84.9826C110.585 85.823 111.695 88.12 111.196 88.4001L107.252 98.2045C107.252 98.2045 116.472 105.096 118.86 106.72C119.638 106.72 120.582 106.496 121.415 105.936C121.415 105.936 123.47 104.759 122.971 103.583C122.971 103.583 124.804 103.527 126.859 102.967C131.746 101.566 130.025 99.2129 129.136 97.4762C127.136 93.2743 121.915 94.0586 120.027 91.8737Z" fill="white" stroke="black" stroke-width="0.803701" stroke-miterlimit="10" stroke-linecap="round" stroke-linejoin="round"/>
<path d="M123.083 103.583C123.083 103.526 123.027 103.526 123.027 103.47C123.027 103.414 122.972 103.414 122.972 103.358C122.916 103.19 122.805 102.966 122.638 102.686C122.583 102.63 122.583 102.574 122.527 102.518C122.416 102.294 122.305 102.126 122.194 101.902C121.694 101.117 121.083 100.165 120.194 99.3246C119.972 99.1005 119.695 98.8764 119.417 98.6523C119.306 98.5963 119.25 98.5403 119.139 98.4282C118.972 98.3162 118.75 98.1481 118.584 98.036C118.361 97.924 118.195 97.8119 117.973 97.6999C117.639 97.5318 117.306 97.4198 116.973 97.3077C113.196 96.1872 112.641 94.3384 112.363 92.0974C112.363 92.0974 111.641 88.7919 110.974 84.366C110.197 79.2677 109.53 79.884 108.808 84.2539C108.808 84.2539 107.975 83.0774 107.697 83.4696C107.197 84.2539 107.586 86.775 107.42 87.2232C107.42 87.2232 106.364 86.0467 106.086 86.4389C105.642 87.1112 106.142 89.6883 105.975 90.0805C105.975 90.0805 104.254 88.3437 103.698 88.6239C103.198 88.8479 103.809 91.4251 103.809 91.4251C103.365 91.4251 101.143 88.8479 99.699 89.4642C99.3658 89.6323 100.143 90.7528 100.532 91.5932C100.865 92.2655 100.81 92.7137 100.81 92.7137C98.4216 91.145 96.3665 89.7443 95.1445 90.5847L95.9221 91.7613C96.0888 92.0414 96.3109 92.3215 96.5331 92.6016C96.5886 92.6576 96.5886 92.7137 96.6442 92.7137C96.6997 92.7697 96.7553 92.8817 96.8108 92.9378C96.8664 92.9938 96.9219 93.0498 96.9774 93.1619C97.033 93.2179 97.0885 93.3299 97.1441 93.386C97.1996 93.498 97.2552 93.554 97.3662 93.6661C97.4218 93.7221 97.4773 93.7781 97.5329 93.8902C97.644 94.0022 97.6995 94.1143 97.8106 94.2824C97.8661 94.3384 97.8661 94.3944 97.9217 94.4504C97.9772 94.5625 98.0883 94.6745 98.1439 94.7866C98.1994 94.8426 98.1994 94.8986 98.2549 94.9547C98.366 95.0667 98.4216 95.2348 98.5327 95.3468C98.5327 95.4029 98.5882 95.4029 98.5882 95.4589C98.6993 95.627 98.8104 95.795 98.977 95.9631C98.977 96.0191 99.0325 96.0191 99.0325 96.0752C99.1436 96.1872 99.2547 96.3553 99.3103 96.4673C99.3658 96.5234 99.3658 96.5794 99.4213 96.6354C99.5324 96.7475 99.6435 96.9155 99.699 97.0276C99.699 97.0836 99.7546 97.0836 99.7546 97.1396C99.8657 97.3077 100.032 97.4758 100.143 97.6439C100.254 97.8119 100.366 97.98 100.477 98.1481C100.532 98.2041 100.532 98.2041 100.588 98.2601C100.699 98.3722 100.81 98.5403 100.865 98.6523C100.865 98.7083 100.921 98.7083 100.921 98.7644C101.143 99.1005 101.421 99.4367 101.643 99.7168C101.699 99.7728 101.699 99.7728 101.754 99.8288C101.865 99.9409 101.921 100.053 102.032 100.165C102.087 100.221 102.087 100.221 102.143 100.277C102.254 100.389 102.365 100.557 102.421 100.669L102.476 100.725C102.587 100.893 102.698 101.005 102.809 101.117C102.809 101.173 102.865 101.173 102.865 101.173C102.976 101.285 103.032 101.398 103.087 101.454C103.143 101.51 103.143 101.51 103.198 101.566C103.254 101.678 103.365 101.734 103.42 101.846C103.42 101.902 103.476 101.902 103.476 101.958C103.587 102.07 103.643 102.182 103.754 102.294L103.809 102.35C103.865 102.406 103.976 102.518 104.031 102.574L104.087 102.63C104.142 102.686 104.198 102.742 104.254 102.798L104.309 102.854C104.365 102.91 104.476 102.966 104.531 103.022C104.753 103.19 104.976 103.414 105.253 103.583C105.42 103.695 105.642 103.863 105.809 103.975C105.92 104.031 106.031 104.087 106.086 104.199C106.586 104.535 107.142 104.927 107.753 105.207C109.697 106.272 112.085 107.056 114.307 106.776C115.029 106.664 115.695 106.496 116.362 106.104C116.362 106.104 117.195 106.496 118.361 106.552C118.861 106.608 119.417 106.552 120.028 106.384C120.472 106.272 120.916 106.048 121.305 105.767C121.305 105.767 122.916 104.871 122.972 103.863C123.138 103.863 123.138 103.751 123.083 103.583Z" fill="white" stroke="black" stroke-width="1.1" stroke-miterlimit="10" stroke-linecap="round" stroke-linejoin="round"/>
<path d="M91.2579 98.204C91.2023 98.204 91.2023 98.204 91.1468 98.204C91.2579 98.204 86.4256 97.4196 84.9815 98.6522C84.5372 98.9883 87.9809 101.117 87.3143 101.397C86.3701 101.79 82.8154 99.4926 80.5936 100.053C80.5936 100.053 82.8709 102.126 81.1491 102.406C80.427 102.518 75.8169 101.061 74.7061 102.406C74.7061 102.406 78.5385 104.535 76.3724 104.871C71.9845 105.487 70.0405 105.823 70.2071 107C70.2071 107 76.4279 107.504 76.2613 110.978C91.369 110.585 92.1466 110.249 93.9795 108.905C93.9795 108.905 100.089 106.384 99.8115 103.022C99.4782 99.6606 97.0343 99.2124 91.2579 98.204Z" fill="white" stroke="black" stroke-width="0.803701" stroke-miterlimit="10" stroke-linecap="round" stroke-linejoin="round"/>
<path d="M34.7699 91.7613C32.8814 92.7137 24.3278 94.4504 20.773 91.5371C20.773 91.5371 27.1605 90.7528 26.6606 85.3184C25.9385 77.643 18.0514 75.9622 10.9419 79.2117C5.99862 81.5087 3.05484 88.3437 5.55427 95.9631C8.94239 106.216 20.9952 110.53 38.3246 103.751C51.4883 98.5403 34.7699 91.7613 34.7699 91.7613Z" fill="black"/>
<path d="M34.7699 91.818C32.8814 92.7705 24.3278 94.5072 20.773 91.5939C20.773 91.5939 27.2716 91.0897 26.605 84.983C25.8274 77.7558 18.0514 76.019 10.9419 79.2685C5.99862 81.5655 3.05484 88.4005 5.55427 96.0199C8.94239 106.272 20.9952 110.586 38.3246 103.807C51.4883 98.5971 34.7699 91.818 34.7699 91.818Z" stroke="black" stroke-width="0.803701" stroke-miterlimit="10" stroke-linecap="round" stroke-linejoin="round"/>
<path d="M75.9824 75.8514C75.5936 75.5152 75.0937 76.0194 75.3714 76.4116C77.0377 79.0448 79.7038 83.3587 80.3148 85.3196C81.2035 88.2889 81.0368 92.2667 80.7591 94.7878C80.7036 95.292 81.3701 95.4601 81.5367 95.0119C83.0919 91.2022 84.8137 83.1906 75.9824 75.8514Z" fill="white" stroke="black" stroke-width="0.803701" stroke-miterlimit="10" stroke-linecap="round" stroke-linejoin="round"/>
<path d="M80.7062 78.0903C78.4845 67.1095 68.7089 63.2998 62.7103 62.9636C62.1549 62.9076 61.9882 63.748 62.5437 63.916C64.9876 64.6444 68.5423 65.989 72.0415 68.342C75.8184 70.9192 78.3734 75.3451 79.8175 78.3705C80.0397 78.9307 80.8173 78.6506 80.7062 78.0903Z" fill="white" stroke="black" stroke-width="0.803701" stroke-miterlimit="10" stroke-linecap="round" stroke-linejoin="round"/>
<path d="M94.9802 90.3058C93.3694 87.7847 88.2039 79.3809 88.9815 76.3556C89.7591 73.3303 90.0369 69.9688 90.0369 69.9688" stroke="black" stroke-width="0.803701" stroke-miterlimit="10" stroke-linecap="round" stroke-linejoin="round"/>
<path d="M116.528 106.272C116.805 104.535 116.639 102.91 114.473 101.062" stroke="black" stroke-width="1.1" stroke-miterlimit="10" stroke-linecap="round" stroke-linejoin="round"/>
<path d="M121.527 105.935C121.749 104.199 121.86 102.238 118.527 100.053" stroke="black" stroke-width="1.1" stroke-miterlimit="10" stroke-linecap="round" stroke-linejoin="round"/>
<path d="M119.305 45.4294C117.139 37.698 80.092 32.4316 80.092 32.4316C79.4255 32.5997 75.2598 35.457 75.2598 35.457C76.815 41.2276 81.9249 54.9537 101.198 56.9145C108.919 57.6989 118.805 52.6566 120.305 49.6313C120.25 49.6313 119.916 47.6144 119.305 45.4294Z" fill="white" stroke="black" stroke-width="0.803701" stroke-miterlimit="10" stroke-linecap="round" stroke-linejoin="round"/>
<path d="M117.696 46.4373C115.974 40.3306 94.3126 34.8402 84.5925 33.2715L76.4277 38.93C79.2049 45.4849 86.5921 55.5694 101.2 56.914C108.643 57.5863 117.53 53.1603 118.807 51.3115C118.807 51.3115 118.307 48.6223 117.696 46.4373Z" fill="#FF6900"/>
<path d="M119.305 45.4294C117.139 37.698 79.7032 32.4316 79.7032 32.4316C79.0367 32.5997 75.2598 35.457 75.2598 35.457C76.815 41.2276 81.9249 54.9537 101.198 56.9145C108.919 57.6989 118.805 52.6566 120.305 49.6313C120.25 49.6313 119.916 47.6144 119.305 45.4294Z" stroke="black" stroke-width="1.1" stroke-miterlimit="10" stroke-linecap="round" stroke-linejoin="round"/>
<path d="M93.9226 108.849C95.9222 106.72 96.8109 105.263 95.9777 103.638C95.5334 102.742 94.2559 102.126 91.5898 102.518" stroke="black" stroke-width="1.1" stroke-miterlimit="10" stroke-linecap="round" stroke-linejoin="round"/>
<path d="M78.7587 33.0469C76.8147 33.383 61.7626 47.1091 51.8204 56.4653C51.5983 56.6894 50.9873 57.0816 50.9873 57.0816C44.3221 57.4177 42.8225 59.6587 42.8225 59.6587C45.0442 59.6027 47.0437 61.0593 47.0437 61.0593C42.4892 61.7877 41.4894 64.3088 41.4894 64.3088C42.7669 64.1407 43.5445 64.4769 43.5445 64.4769C39.3788 68.7908 36.7683 71.9842 35.1575 74.8415C32.3804 79.7156 25.8819 92.8815 37.3237 103.526C48.7656 114.171 59.4298 108.064 59.4298 108.064C59.4298 108.064 60.5962 111.258 74.3153 110.922C91.367 110.473 92.0891 110.193 93.9775 108.793C93.9775 108.793 100.087 106.271 99.8095 102.91C99.5318 99.5485 97.1435 99.1563 91.3115 98.1478C85.4794 97.1394 80.4806 97.0834 80.4806 97.0834L81.4248 95.4586C81.4248 95.4586 90.8116 94.4502 95.0328 90.1923C95.0328 90.1923 102.42 101.061 104.697 103.022C106.975 104.983 112.307 108.344 116.639 106.159C116.639 106.159 119.305 107.392 121.582 105.823C121.582 105.823 123.637 104.647 123.138 103.47C123.138 103.47 124.97 103.414 127.026 102.854C131.913 101.453 130.192 99.1003 129.303 97.3635C127.192 93.1616 121.916 93.946 120.083 91.705C118.639 89.9682 117.361 73.665 116.139 68.0625C114.917 62.46 122.193 55.5129 119.861 47.1652C117.472 38.9295 78.7587 33.0469 78.7587 33.0469Z" stroke="black" stroke-width="1.1" stroke-miterlimit="10" stroke-linecap="round" stroke-linejoin="round"/>
<path d="M109.088 60.3317C92.758 63.7492 85.8706 52.5442 82.0937 53.6647C81.1495 53.9448 81.0384 57.0262 84.5376 59.7154C84.5376 59.7154 84.0377 60.2196 82.7047 59.9395C82.1493 59.8274 81.7049 60.4437 81.9826 60.9479C82.8158 62.2925 84.4265 64.0853 87.2592 63.9733C87.2592 63.9733 87.4814 64.4215 86.4816 64.7016C85.9817 64.8137 85.8706 65.486 86.2594 65.7661C87.0926 66.4384 88.8144 66.3263 90.5362 66.4944C92.758 66.7185 93.0912 68.9595 96.0905 69.9119C99.8119 71.1445 100.756 68.9595 104.811 70.5282C107.088 71.4246 108.421 73.1053 109.754 77.5313C110.254 79.2121 110.92 79.156 111.198 77.4193C112.92 66.6625 113.975 68.9035 117.363 61.4522C120.196 55.2334 119.974 52.6562 119.974 52.6562C119.974 52.6562 116.253 58.819 109.088 60.3317Z" fill="white" stroke="black" stroke-width="0.803701" stroke-miterlimit="10" stroke-linecap="round" stroke-linejoin="round"/>
<path d="M19.8846 106.889C11.5532 101.118 13.3861 99.7736 12.9973 99.6055C12.5529 99.3814 11.4421 100.614 11.4421 100.614C8.83155 94.8434 13.0528 89.2409 12.4974 88.9608C11.2199 88.2885 9.55361 88.9608 9.55361 88.9608C9.88687 85.5993 16.8297 84.0866 16.8297 84.0866C16.4409 82.5739 13.997 82.4619 13.997 82.4619C15.6078 80.7251 22.7173 79.4926 26.5497 85.039C26.5497 82.1257 24.0503 79.3245 22.1619 78.6522C20.6067 78.1479 23.2172 76.075 23.2172 76.075C21.8841 75.8509 17.163 75.7949 14.2748 77.5877C13.275 78.204 13.6638 74.2822 13.6638 74.2822C8.16504 76.4672 7.27635 80.9492 6.33212 82.5179C5.77669 83.4703 3.94378 80.9492 3.94378 80.9492C3.38835 82.742 2.83292 87.0559 4.22149 92.2102C4.44366 93.1066 1 90.4734 1 90.4734C2.05532 95.1795 6.22104 97.8687 6.72092 98.7091C7.16527 99.5495 4.66583 98.7651 4.66583 98.7651C6.16549 101.174 8.1095 102.799 9.77578 103.695C12.4974 105.32 16.0521 106.441 19.8846 106.889Z" fill="white" stroke="black" stroke-width="1.1" stroke-miterlimit="10" stroke-linecap="round" stroke-linejoin="round"/>
<path d="M105.198 53.384C118.306 51.3111 126.582 41.1706 126.082 28.0047C125.526 12.878 116.306 22.5703 120.139 11.1412C122.583 3.97 120.805 0.944657 118.361 1.05671C116.306 1.11273 112.196 3.0736 109.141 3.85795C107.253 4.30615 100.865 3.68988 97.5883 3.91398C94.7556 4.08205 91.312 5.42665 88.0349 5.81883C84.5357 6.211 81.5364 6.04293 79.6479 6.71522C77.0374 7.66765 76.5931 9.7966 81.7586 12.878C86.5353 15.7352 72.9828 20.4413 78.0372 35.9042C80.981 45.0363 92.8116 55.3449 105.198 53.384Z" fill="white" stroke="black" stroke-width="0.803701" stroke-miterlimit="10" stroke-linecap="round" stroke-linejoin="round"/>
<path d="M105.2 53.3842C118.308 51.3113 126.584 41.1707 126.084 28.0049C125.917 23.0747 124.806 20.7777 123.529 19.5451C120.918 16.968 128.028 3.46597 118.308 1.0569C115.42 0.328578 110.865 6.82747 107.755 7.10759C106.477 7.21964 102.089 6.49132 98.8678 6.71542C96.0351 6.88349 93.0358 8.34014 89.7587 8.67629C86.2595 9.06847 82.5382 5.87505 79.5944 6.71542C76.9283 7.49977 77.7615 24.3633 77.7615 24.3633C77.7615 24.3633 75.5953 28.6772 77.9836 35.9044C80.983 45.0365 92.8136 55.3451 105.2 53.3842Z" fill="black"/>
<path d="M105.198 53.384C118.306 51.3111 126.582 41.1706 126.082 28.0047C125.526 12.878 116.306 22.5703 120.139 11.1412C122.583 3.97 120.805 0.944657 118.361 1.05671C116.306 1.11273 112.196 3.0736 109.141 3.85795C107.253 4.36218 102.587 3.46578 98.6436 3.85795C95.8109 4.13808 91.312 5.48268 88.0349 5.81883C84.5357 6.211 81.5364 6.04293 79.6479 6.71522C77.0374 7.66765 76.5931 9.7966 81.7586 12.878C86.5353 15.7352 72.9828 20.4413 78.0372 35.9042C80.981 45.0363 92.8116 55.3449 105.198 53.384Z" stroke="black" stroke-width="1.1" stroke-miterlimit="10" stroke-linecap="round" stroke-linejoin="round"/>
<path d="M107.477 51.0873C95.8682 52.712 89.814 48.5661 86.1482 44.8685C82.5934 41.3389 81.7603 38.3136 81.0938 35.5683C81.0938 35.5683 83.9264 36.4647 83.371 35.6804C82.8156 34.84 81.5936 32.9912 82.0935 30.246C82.0935 30.246 83.8154 31.2544 83.8709 30.246C83.982 27.8369 84.5374 25.5399 86.0926 24.9796C86.0926 24.9796 86.3148 27.6688 87.0369 27.7809C87.7589 27.8929 88.9809 26.2682 89.0919 26.8845C89.3697 28.3411 87.5923 34.3358 89.6474 34.896C91.7025 35.4563 95.2017 32.3749 96.4236 29.6297C96.5347 29.3496 96.9235 29.4616 96.979 29.7418C97.2012 30.7502 98.7009 32.2629 99.5896 32.6551C102.311 33.7755 106.033 32.8231 107.532 30.5821C108.254 29.5177 108.365 28.5652 108.31 27.7809C108.254 27.3327 108.81 27.0526 109.143 27.3327C111.087 28.8454 114.531 32.0948 115.808 31.6466C119.196 30.4141 115.419 25.4278 116.086 23.1308C116.086 23.1308 117.308 24.3073 117.974 23.8031C118.419 23.467 117.752 20.1055 117.752 20.1055C120.418 20.6657 120.696 23.6911 121.029 25.3718C121.14 25.9321 122.806 24.3634 122.806 24.3634C123.862 26.6044 123.084 28.117 122.307 29.9659C121.862 31.0303 124.473 29.5177 124.473 29.5177C125.028 30.8062 123.417 36.7449 122.584 38.7057C120.14 44.7004 114.364 50.1348 107.477 51.0873Z" fill="white" stroke="black" stroke-width="0.803701" stroke-miterlimit="10" stroke-linecap="round" stroke-linejoin="round"/>
<path d="M97.4793 18.369C97.146 16.9684 93.869 15.3436 92.0361 17.8648C90.2032 20.3859 92.1472 22.5709 94.8688 21.2263C97.5904 19.7696 97.7015 19.1533 97.4793 18.369Z" fill="white" stroke="black" stroke-width="0.803701" stroke-miterlimit="10" stroke-linecap="round" stroke-linejoin="round"/>
<path d="M104.254 16.9114C103.865 15.5108 106.587 12.7656 109.197 14.5024C111.808 16.2391 110.697 18.9844 107.642 18.6482C104.643 18.3121 104.476 17.5277 104.254 16.9114Z" fill="white" stroke="black" stroke-width="0.803701" stroke-miterlimit="10" stroke-linecap="round" stroke-linejoin="round"/>
<path d="M103.587 30.6943C101.366 30.6943 99.5883 31.0305 99.6438 32.5992C99.6994 34.1118 101.699 37.5293 104.976 37.0811C107.642 36.689 109.197 32.4871 107.642 30.5262C106.42 29.0696 104.809 30.7503 103.587 30.6943Z" fill="white" stroke="black" stroke-width="0.803701" stroke-miterlimit="10" stroke-linecap="round" stroke-linejoin="round"/>
<path d="M103.921 32.1502C102.366 32.3743 99.6442 31.2538 99.7553 33.4948C99.8108 34.3912 101.644 37.5846 104.921 37.1365C107.587 36.7443 109.086 32.3183 107.92 31.1418C106.754 29.9653 105.198 31.9261 103.921 32.1502Z" fill="black"/>
<path d="M179.738 156.638L164.02 160L162.131 156.862L179.738 156.638Z" fill="white"/>
<path d="M179.738 156.638L164.02 160L162.131 156.862L179.738 156.638Z" stroke="black" stroke-width="1.1" stroke-miterlimit="10" stroke-linecap="round" stroke-linejoin="round"/>
<path d="M178.848 96.3555L165.407 26.6605L169.739 17.8086L230.558 35.1763L238.668 51.0314L248.888 120.95L178.848 96.3555Z" fill="#FF6900"/>
<path d="M178.848 96.3555L165.407 26.6605L169.739 17.8086L230.558 35.1763L238.668 51.0314L248.888 120.95L178.848 96.3555Z" stroke="black" stroke-width="1.1" stroke-miterlimit="10" stroke-linecap="round" stroke-linejoin="round"/>
<path d="M178.849 96.3555L174.517 106.552L244.556 131.035L249 120.838L178.849 96.3555Z" fill="#FF6900"/>
<path d="M178.849 96.3555L174.517 106.552L244.556 131.035L249 120.838L178.849 96.3555Z" stroke="black" stroke-width="1.1" stroke-miterlimit="10" stroke-linecap="round" stroke-linejoin="round"/>
<path d="M240.002 60.2753L236.114 67.7827C235.891 68.9592 235.725 70.0237 235.558 71.1442L243.167 125.712L249 120.782L240.002 60.2753Z" fill="white" stroke="black" stroke-width="0.803701" stroke-miterlimit="10" stroke-linecap="round" stroke-linejoin="round"/>
<path d="M240.002 60.2753L236.114 67.7827C235.891 68.9592 235.725 70.0237 235.558 71.1442L243.167 125.712L249 120.782L240.002 60.2753Z" stroke="black" stroke-width="1.1" stroke-miterlimit="10" stroke-linecap="round" stroke-linejoin="round"/>
<path d="M167.741 38.7055L162.909 41.2266C162.409 42.3471 162.298 43.2435 161.798 44.364L170.518 101.117L178.905 96.3552L167.741 38.7055Z" fill="#FF6900"/>
<path d="M167.127 35.5686L160.351 39.3223C159.851 40.4428 159.462 41.2271 158.962 42.3476L170.515 101.118L178.902 96.3556L167.127 35.5686Z" stroke="black" stroke-width="1.1" stroke-miterlimit="10" stroke-linecap="round" stroke-linejoin="round"/>
<path d="M190.076 105.734C190.604 104.447 190.296 103.097 189.389 102.719C188.482 102.34 187.319 103.076 186.791 104.362C186.263 105.649 186.57 106.999 187.477 107.378C188.384 107.756 189.548 107.02 190.076 105.734Z" fill="white" stroke="black" stroke-width="1.1" stroke-miterlimit="10" stroke-linecap="round" stroke-linejoin="round"/>
<path d="M174.572 94.507L174.517 106.552L228.838 125.545L244.556 131.035L179.738 156.639L164.019 156.863V160L99.7559 135.349V123.304L104.921 123.024L107.032 116.861L174.572 94.507Z" fill="white"/>
<path d="M233.698 121.098C234.226 119.811 233.918 118.461 233.011 118.082C232.104 117.704 230.941 118.44 230.413 119.726C229.885 121.013 230.192 122.363 231.099 122.741C232.006 123.12 233.17 122.384 233.698 121.098Z" fill="white" stroke="black" stroke-width="1.1" stroke-miterlimit="10" stroke-linecap="round" stroke-linejoin="round"/>
<path d="M169.739 17.8086L156.631 22.1785L174.294 27.4449C174.961 25.3159 181.181 25.3159 188.235 27.3889C195.289 29.4618 200.51 32.9353 199.899 35.0643L217.562 40.3306L230.503 35.2323L169.739 17.8086Z" fill="white" stroke="black" stroke-width="1.1" stroke-miterlimit="10" stroke-linecap="round" stroke-linejoin="round"/>
<path d="M107.032 116.859V119.437L174.572 97.0827L174.517 106.551L233.059 127L179.793 148.57L162.186 148.794L164.019 151.931L99.7559 123.302L104.921 123.022L107.032 116.859Z" fill="#FF6900"/>
<path d="M107.031 128.794L174.516 106.552L244.556 131.035L179.737 156.638L107.031 128.794Z" stroke="black" stroke-width="1.1" stroke-miterlimit="10" stroke-linecap="round" stroke-linejoin="round"/>
<path d="M162.187 144.818L179.794 144.594L179.738 156.639L162.131 156.863L162.187 144.818Z" fill="white" stroke="black" stroke-width="0.803701" stroke-miterlimit="10" stroke-linecap="round" stroke-linejoin="round"/>
<path d="M244.557 119.438L179.794 144.594L179.738 156.639L244.557 131.036V119.438Z" fill="white" stroke="black" stroke-width="0.803701" stroke-miterlimit="10" stroke-linecap="round" stroke-linejoin="round"/>
<path d="M244.557 119.438L179.794 144.594L179.738 156.639L244.557 131.036V119.438Z" stroke="black" stroke-width="1.1" stroke-miterlimit="10" stroke-linecap="round" stroke-linejoin="round"/>
<path d="M162.187 144.818L179.794 144.594L179.738 156.639L162.131 156.863L162.187 144.818Z" stroke="black" stroke-width="1.1" stroke-miterlimit="10" stroke-linecap="round" stroke-linejoin="round"/>
<path d="M188.013 136.638L184.681 138.823L172.85 137.927C170.795 137.758 170.351 136.022 172.239 135.629L183.07 133.445L186.902 134.341C188.513 134.621 189.124 135.91 188.013 136.638Z" fill="black"/>
<path d="M185.181 133.163L182.737 136.693L172.684 137.477C170.962 137.589 170.24 135.292 171.795 134.452L180.515 129.578L183.904 130.082C185.292 130.306 186.014 131.987 185.181 133.163Z" fill="white" stroke="black" stroke-width="1.1" stroke-miterlimit="10" stroke-linecap="round" stroke-linejoin="round"/>
<path d="M188.679 123.024C188.235 123.304 187.68 123.416 187.069 123.36L179.626 122.351C178.237 122.183 177.404 121.007 178.071 120.167L179.07 118.766C179.626 117.982 181.014 117.869 182.014 118.43L184.069 119.662C184.347 119.83 184.625 119.942 184.902 119.998L187.569 120.503C189.179 120.783 189.79 122.239 188.679 123.024Z" fill="black"/>
<path d="M186.625 120.894C186.348 121.286 185.959 121.51 185.459 121.566L179.627 122.014C178.516 122.126 177.683 121.062 178.016 119.997L178.516 118.317C178.794 117.364 179.849 116.916 180.682 117.364L182.46 118.261C182.682 118.373 182.904 118.429 183.182 118.429H185.292C186.625 118.429 187.347 119.885 186.625 120.894Z" fill="white" stroke="black" stroke-width="1.1" stroke-miterlimit="10" stroke-linecap="round" stroke-linejoin="round"/>
<path d="M136.803 129.97L134.747 131.147C134.359 131.371 133.692 131.315 133.303 131.035L130.859 129.242C130.304 128.85 130.526 128.233 131.248 128.121L132.97 127.897C133.192 127.841 133.414 127.897 133.637 127.953L136.414 128.794C137.136 129.018 137.358 129.634 136.803 129.97Z" fill="black"/>
<path d="M134.97 128.402L133.915 129.971C133.693 130.307 133.304 130.363 132.97 130.139L131.138 128.85C130.749 128.57 130.749 127.954 131.193 127.73L132.193 127.17C132.304 127.114 132.471 127.058 132.637 127.114L134.526 127.394C135.026 127.394 135.248 127.954 134.97 128.402Z" fill="white" stroke="black" stroke-width="1.1" stroke-miterlimit="10" stroke-linecap="round" stroke-linejoin="round"/>
<path d="M107.032 116.861L174.572 94.507L174.517 106.552L228.838 125.545L179.793 144.593L162.186 144.817L164.019 148.011L99.7559 123.304L104.921 123.024L107.032 116.861Z" stroke="black" stroke-width="1.1" stroke-miterlimit="10" stroke-linecap="round" stroke-linejoin="round"/>
<path d="M107.031 116.861V128.738" stroke="black" stroke-width="1.1" stroke-miterlimit="10" stroke-linecap="round" stroke-linejoin="round"/>
<path d="M164.019 148.01V159.999L99.7559 135.348V123.303L164.019 148.01Z" fill="white" stroke="black" stroke-width="0.803701" stroke-miterlimit="10" stroke-linecap="round" stroke-linejoin="round"/>
<path d="M164.019 148.01V159.999L99.7559 135.348V123.303L164.019 148.01Z" stroke="black" stroke-width="1.1" stroke-miterlimit="10" stroke-linecap="round" stroke-linejoin="round"/>
<path d="M180.072 140.167L181.016 139.831C182.516 139.326 182.404 138.262 180.794 137.702C180.405 137.534 179.961 137.422 179.461 137.366L177.905 137.141C175.351 136.805 173.407 137.926 174.684 138.99L175.295 139.495C176.239 140.391 178.572 140.671 180.072 140.167Z" fill="black"/>
<path d="M178.626 138.206L178.904 137.422C179.293 136.189 178.46 134.901 177.182 134.789C176.849 134.733 176.571 134.789 176.294 134.901L175.349 135.293C173.794 135.909 173.628 138.038 175.016 138.935L175.738 139.383C176.738 139.999 178.182 139.439 178.626 138.206Z" fill="white" stroke="black" stroke-width="1.1" stroke-miterlimit="10" stroke-linecap="round" stroke-linejoin="round"/>
<path d="M152.8 120.334C150.411 120.502 149.8 122.015 151.022 123.247C152.244 124.48 160.298 124.928 161.853 125.208C163.408 125.488 162.186 122.743 162.186 122.743C162.186 122.743 163.63 120.726 160.909 120.222C158.187 119.718 154.299 120.222 152.8 120.334Z" fill="black"/>
<path d="M151.521 117.644C149.688 118.429 149.41 120.894 150.466 122.519C151.521 124.143 157.742 123.247 158.964 123.359C160.186 123.471 158.964 119.493 158.964 119.493C158.964 119.493 159.852 116.076 157.742 115.852C155.576 115.516 152.687 117.14 151.521 117.644Z" fill="white" stroke="black" stroke-width="1.1" stroke-miterlimit="10" stroke-linecap="round" stroke-linejoin="round"/>
<path d="M153.465 121.23C153.909 120.782 157.519 119.101 158.964 119.437" stroke="black" stroke-width="1.1" stroke-miterlimit="10" stroke-linecap="round" stroke-linejoin="round"/>
<path d="M172.016 124.536C172.016 124.536 175.071 125.657 176.571 125.937C178.071 126.217 179.348 126.329 179.515 125.321C179.681 124.256 178.57 123.248 177.015 122.968C175.516 122.687 172.016 124.536 172.016 124.536Z" fill="black"/>
<path d="M172.127 124.535C172.127 124.535 174.516 125.039 175.738 125.039C176.904 125.039 177.904 124.983 177.904 124.143C177.904 123.303 176.96 122.574 175.738 122.574C174.571 122.574 172.127 124.535 172.127 124.535Z" fill="white" stroke="black" stroke-width="1.1" stroke-miterlimit="10" stroke-linecap="round" stroke-linejoin="round"/>
<path d="M77.5379 7.55481C76.0382 8.50723 75.4273 10.244 75.3162 12.3169C75.2606 12.7651 73.9832 11.0284 73.9832 11.0284C73.4833 13.9416 74.9274 15.8465 75.094 16.7429C75.2051 17.3031 73.4277 16.5188 73.4277 16.5188C74.2609 21.6171 76.9269 22.7376 78.0378 24.8105C78.2044 25.0906 81.0371 22.5695 82.3701 21.393C78.982 19.9363 79.4264 16.4067 79.4264 16.4067L82.0369 19.0399C80.926 16.967 80.4817 14.2778 80.926 13.7736C81.7592 12.9332 85.5916 18.2556 87.3135 16.3507C88.9242 14.5579 90.0351 13.0452 90.0906 12.429C90.1462 10.8043 82.6479 4.36138 77.5379 7.55481Z" fill="white" stroke="black" stroke-width="1.1" stroke-miterlimit="10" stroke-linecap="round" stroke-linejoin="round"/>
<path d="M119.751 1.16768C115.696 -0.120898 109.864 8.17079 110.197 9.68347C110.197 9.68347 111.641 11.0281 113.53 12.7088C115.363 14.3335 118.195 8.33887 118.918 9.01117C119.362 9.40334 119.695 11.8684 119.14 13.9414C119.751 13.7173 120.306 13.4371 120.584 13.101C120.584 13.101 120.862 15.1739 118.751 16.9667C120.473 18.1432 123.75 20.2722 123.916 19.3198C124.139 17.639 127.027 14.7817 126.194 10.972C126.194 10.972 124.25 12.4287 124.194 11.6443C124.139 10.6359 126.194 8.28284 125.249 6.04184C125.249 6.04184 123.639 7.38644 123.472 6.77017C122.75 3.9129 121.528 1.72792 119.751 1.16768Z" fill="white" stroke="black" stroke-width="1.1" stroke-miterlimit="10" stroke-linecap="round" stroke-linejoin="round"/>
<path d="M127.415 102.853C127.804 102.013 127.36 98.1474 124.694 97.5311C124.027 97.363 123.139 97.251 123.139 97.251" stroke="black" stroke-width="1.1" stroke-miterlimit="10" stroke-linecap="round" stroke-linejoin="round"/>
<path d="M107.364 39.2089C105.643 38.8727 104.532 37.9203 104.476 37.8643C104.476 37.8643 103.032 39.545 102.143 40.1053C100.644 41.0577 98.9219 41.1137 98.9219 41.1137C101.033 42.5703 100.588 46.9403 103.421 48.9572C104.921 50.0217 106.753 49.8536 107.975 49.6855C111.363 49.1253 108.92 39.489 107.364 39.2089Z" fill="#FF6900"/>
<path d="M107.643 39.2649C105.921 38.9287 104.533 37.9203 104.533 37.8643C104.533 37.8643 103.089 39.545 102.2 40.1053C100.7 41.0577 98.9785 41.1137 98.9785 41.1137C101.089 42.5703 100.645 46.9403 103.477 48.9572C104.977 50.0217 106.81 50.0217 108.032 49.6855C112.975 48.2849 111.365 41.6179 110.365 39.545C110.254 39.3209 109.198 39.545 107.643 39.2649Z" stroke="black" stroke-width="1.1" stroke-miterlimit="10" stroke-linecap="round" stroke-linejoin="round"/>
<path d="M110.252 39.4916C110.807 40.332 111.641 42.9652 111.307 45.5423C112.085 43.0212 112.196 40.332 114.307 37.3066C113.418 38.203 110.252 39.4916 110.252 39.4916Z" fill="black"/>
<path d="M98.9223 41.115C97.256 41.227 95.5897 40.7228 94.2012 39.9385C97.8115 41.8993 99.1445 46.2693 102.588 48.2862C102.644 48.3422 102.699 48.3422 102.81 48.3982C100.644 46.2693 100.866 42.4596 98.9223 41.115Z" fill="black"/>
<path d="M107.199 46.2125C105.144 44.5878 106.31 40.3859 103.922 38.5371L102.533 39.8817C102.533 39.8817 103.589 40.554 103.922 41.9546C104.255 43.3553 105.144 45.4282 105.921 45.9324C107.254 46.8288 107.199 46.2125 107.199 46.2125Z" fill="white"/>
<path d="M91.2578 36.8016C92.091 39.0426 95.6457 41.3396 98.9227 41.0595C98.9227 41.0595 100.645 41.0035 102.144 40.0511C103.033 39.4908 104.477 37.8101 104.477 37.8101C104.477 37.8101 105.866 38.7065 107.587 39.2107C111.864 40.3872 115.641 37.2498 116.308 32.8799" stroke="black" stroke-width="1.1" stroke-miterlimit="10" stroke-linecap="round" stroke-linejoin="round"/>
<path d="M107.088 46.0999C104.922 43.9149 106.31 40.3293 103.922 38.4805L107.088 46.0999Z" fill="white"/>
<path d="M107.088 46.0999C104.922 43.9149 106.31 40.3293 103.922 38.4805" stroke="black" stroke-width="1.1" stroke-miterlimit="10" stroke-linecap="round" stroke-linejoin="round"/>
</svg>
